HIERARCHY
ROOT Hips
{
	OFFSET 0.000000 0.000000 0.000000
	CHANNELS 6 Xposition Yposition Zposition Zrotation Yrotation Xrotation 
	JOINT LHipJoint
	{
		OFFSET 0.000000 0.000000 0.000000
		CHANNELS 3 Zrotation Yrotation Xrotation
		JOINT LeftUpLeg
		{
			OFFSET 8.178360 -10.767780 5.035740
			CHANNELS 3 Zrotation Yrotation Xrotation
			JOINT LeftLeg
			{
				OFFSET 14.688660 -40.356780 0.000000
				CHANNELS 3 Zrotation Yrotation Xrotation
				JOINT LeftFoot
				{
					OFFSET 15.373200 -42.237540 0.000000
					CHANNELS 3 Zrotation Yrotation Xrotation
					JOINT LeftToeBase
					{
						OFFSET 0.945840 -2.598660 13.935300
						CHANNELS 3 Zrotation Yrotation Xrotation
						End Site
						{
							OFFSET 0.000000 0.000000 0.000000
						}
					}
				}
			}
		}
	}
	JOINT RHipJoint
	{
		OFFSET 0.000000 0.000000 0.000000
		CHANNELS 3 Zrotation Yrotation Xrotation
		JOINT RightUpLeg
		{
			OFFSET -7.833120 -10.767780 5.035740
			CHANNELS 3 Zrotation Yrotation Xrotation
			JOINT RightLeg
			{
				OFFSET -15.255180 -41.913300 0.000000
				CHANNELS 3 Zrotation Yrotation Xrotation
				JOINT RightFoot
				{
					OFFSET -15.409560 -42.337380 0.000000
					CHANNELS 3 Zrotation Yrotation Xrotation
					JOINT RightToeBase
					{
						OFFSET -0.988380 -2.715540 14.178900
						CHANNELS 3 Zrotation Yrotation Xrotation
						End Site
						{
							OFFSET 0.000000 0.000000 0.000000
						}
					}
				}
			}
		}
	}
	JOINT LowerBack
	{
		OFFSET 0.000000 0.000000 0.000000
		CHANNELS 3 Zrotation Yrotation Xrotation
		JOINT Spine
		{
			OFFSET 0.169620 12.213540 -1.160280
			CHANNELS 3 Zrotation Yrotation Xrotation
			JOINT Spine1
			{
				OFFSET 0.340320 12.293100 -0.256500
				CHANNELS 3 Zrotation Yrotation Xrotation
				JOINT Neck
				{
					OFFSET 0.000000 0.000000 0.000000
					CHANNELS 3 Zrotation Yrotation Xrotation
					JOINT Neck1
					{
						OFFSET -0.325020 10.477440 1.032120
						CHANNELS 3 Zrotation Yrotation Xrotation
						JOINT Head
						{
							OFFSET 0.624420 10.568160 -0.743820
							CHANNELS 3 Zrotation Yrotation Xrotation
							End Site
							{
								OFFSET 0.000000 0.000000 0.000000
							}
						}
					}
				}
				JOINT LeftShoulder
				{
					OFFSET 0.000000 0.000000 0.000000
					CHANNELS 3 Zrotation Yrotation Xrotation
					JOINT LeftArm
					{
						OFFSET 20.174460 7.205340 -1.867260
						CHANNELS 3 Zrotation Yrotation Xrotation
						JOINT LeftForeArm
						{
							OFFSET 29.898000 -0.000000 -0.000000
							CHANNELS 3 Zrotation Yrotation Xrotation
							JOINT LeftHand
							{
								OFFSET 20.901360 -0.000000 -0.000000
								CHANNELS 3 Zrotation Yrotation Xrotation
								JOINT LeftFingerBase
								{
									OFFSET 0.000000 0.000000 0.000000
									CHANNELS 3 Zrotation Yrotation Xrotation
									JOINT LeftHandIndex1
									{
										OFFSET 4.291560 -0.000000 -0.000000
										CHANNELS 3 Zrotation Yrotation Xrotation
										End Site
										{
											OFFSET 0.000000 0.000000 0.000000
										}
									}
								}
								JOINT LThumb
								{
									OFFSET 0.000000 0.000000 0.000000
									CHANNELS 3 Zrotation Yrotation Xrotation
									End Site
									{
										OFFSET 0.000000 0.000000 0.000000
									}
								}
							}
						}
					}
				}
				JOINT RightShoulder
				{
					OFFSET 0.000000 0.000000 0.000000
					CHANNELS 3 Zrotation Yrotation Xrotation
					JOINT RightArm
					{
						OFFSET -18.819600 8.244300 -2.427900
						CHANNELS 3 Zrotation Yrotation Xrotation
						JOINT RightForeArm
						{
							OFFSET -31.451400 -0.000000 -0.000000
							CHANNELS 3 Zrotation Yrotation Xrotation
							JOINT RightHand
							{
								OFFSET -20.665020 -0.000000 -0.000000
								CHANNELS 3 Zrotation Yrotation Xrotation
								JOINT RightFingerBase
								{
									OFFSET 0.000000 0.000000 0.000000
									CHANNELS 3 Zrotation Yrotation Xrotation
									JOINT RightHandIndex1
									{
										OFFSET -3.735180 -0.000000 -0.000000
										CHANNELS 3 Zrotation Yrotation Xrotation
										End Site
										{
											OFFSET 0.000000 0.000000 0.000000
										}
									}
								}
								JOINT RThumb
								{
									OFFSET 0.000000 0.000000 0.000000
									CHANNELS 3 Zrotation Yrotation Xrotation
									End Site
									{
										OFFSET 0.000000 0.000000 0.000000
									}
								}
							}
						}
					}
				}
			}
		}
	}
}
MOTION
Frames:	5
Frame Time:	0.0333333
0.162726 107.545422 1.901046 -179.210075 0.993153 179.354245 -1.319271 2.288721 2.728020 -18.614303 -4.267118 -1.519334 -0.526348 4.465968 14.574835 -0.071651 0.783047 -4.964643 0.004200 0.419500 1.152600 -0.693296 -1.856549 0.736582 24.179175 2.350129 -4.054329 -1.622668 -7.290059 22.478555 -0.510756 2.105727 -6.306905 -0.068400 -1.687500 4.642700 -0.412341 0.581019 5.497114 1.531542 0.840095 2.416903 -0.085125 0.416777 -3.976780 -12.336763 -5.059168 -18.735734 7.479717 -6.193506 22.054716 4.367600 -3.646100 14.565600 -6.162655 -0.370119 -1.596571 -85.347627 6.222123 20.001993 17.457909 -24.491851 -4.306969 -0.894476 -1.904074 3.601160 20.125149 21.082996 8.508200 -7.125000 0.000000 0.000000 -8.649900 54.260100 -1.979700 5.121175 1.065860 -0.979056 85.941934 -3.292810 16.566768 -15.863713 23.051734 -3.233809 0.252190 -0.129335 8.305253 -14.361625 7.771264 -2.043500 7.125000 0.000000 0.000000 8.857800 -21.897600 4.973500 
0.301698 107.512758 1.957464 -179.350537 0.887059 179.313747 -1.321311 2.284019 2.721328 -18.676392 -4.423452 -1.523915 -0.516949 4.507073 14.688059 -0.072584 0.820127 -5.029047 0.008000 0.576500 1.584300 -0.690035 -1.856385 0.739590 24.136292 2.328050 -4.064779 -1.628966 -7.308462 22.532140 -0.509573 2.051026 -6.423965 -0.063300 -1.623900 4.467300 -0.616404 0.476540 5.628850 1.501994 0.686144 2.412453 0.008573 0.344383 -4.047261 -12.413443 -5.049477 -18.685777 7.564796 -6.194027 22.104712 4.417500 -3.652700 14.582900 -6.166565 -0.366274 -1.594901 -85.280932 6.204199 19.724093 17.405431 -24.424148 -4.276457 -0.901984 -1.901111 3.677257 20.170424 21.092716 8.532900 -7.125000 0.000000 0.000000 -8.601300 54.277800 -1.972200 5.120154 1.074611 -0.977737 85.950381 -3.353450 17.119597 -15.890023 23.079542 -3.245824 0.256990 -0.123107 7.986941 -14.490450 7.576992 -2.010700 7.125000 0.000000 0.000000 8.769700 -22.096000 4.882800 
0.478080 107.515134 1.996068 -179.146856 0.940316 179.121246 -1.310150 2.297598 2.731759 -18.367718 -4.473168 -1.470996 -0.492652 4.592035 14.921621 -0.073637 0.882504 -5.135957 0.010800 0.669700 1.840300 -0.697766 -1.858893 0.733262 24.505517 2.389662 -3.763053 -1.609164 -7.258185 22.395612 -0.474164 1.858150 -6.242041 -0.057800 -1.550800 4.265800 -0.444239 0.477541 5.903345 1.505122 0.711318 2.485435 -0.080970 0.360092 -4.106761 -12.239315 -4.907245 -18.355600 7.414642 -6.041289 21.864591 4.347400 -3.587400 14.364400 -6.160888 -0.382674 -1.588252 -85.132991 6.207851 19.393648 17.424356 -24.456400 -4.286047 -0.893482 -1.878437 4.065275 19.943004 20.880184 8.346200 -7.125000 0.000000 0.000000 -8.766200 53.995000 -1.949800 5.129859 1.064927 -0.978022 86.276711 -3.121851 17.063777 -15.819169 22.978573 -3.216393 0.258057 -0.125334 8.344574 -14.592539 7.559300 -2.021000 7.125000 0.000000 0.000000 8.694900 -22.109500 4.837500 
0.673470 107.513352 2.098812 -179.132623 0.996053 179.254763 -1.315137 2.282613 2.706973 -18.249946 -4.834927 -1.781793 -0.456901 4.754883 15.354576 -0.084831 1.102928 -5.356482 0.010400 0.657400 1.806600 -0.696471 -1.851428 0.737866 24.692331 2.667752 -3.792497 -1.586596 -7.208237 22.250927 -0.433165 1.596075 -6.129323 -0.063000 -1.620000 4.456600 -0.483994 0.555659 5.964825 1.494317 0.814674 2.492147 -0.074841 0.409789 -4.135050 -12.505122 -5.023676 -18.222714 7.719824 -6.162028 21.741656 4.500300 -3.626900 14.323700 -6.159181 -0.366525 -1.586692 -85.052142 6.071498 19.030241 17.503232 -24.563943 -4.324195 -0.879190 -1.874192 4.920407 19.468123 21.117592 8.203500 -7.125000 0.000000 0.000000 -9.391900 54.146900 -2.125700 5.124612 1.098155 -0.966472 86.330808 -3.071517 17.456792 -15.819229 22.985908 -3.219504 0.255277 -0.142501 8.249966 -14.551476 8.321315 -2.219100 7.125000 0.000000 0.000000 8.697400 -21.315400 4.997700 
0.802944 107.513946 2.179584 -178.806982 0.834193 179.232535 -1.309327 2.286994 2.695682 -17.844896 -5.288054 -1.954202 -0.405507 4.961878 15.909006 -0.091890 1.304249 -5.633683 0.004700 0.443200 1.217800 -0.700108 -1.847717 0.732011 25.190311 2.577656 -3.699198 -1.540823 -7.097737 21.936333 -0.379383 1.266474 -5.950616 -0.052300 -1.475800 4.058900 0.087912 0.594789 6.178678 1.524915 0.927456 2.535002 -0.375399 0.461647 -4.177292 -12.471021 -5.122820 -18.518051 7.484728 -6.273678 21.996377 4.387400 -3.700100 14.510300 -6.162699 -0.388077 -1.580379 -84.979230 5.829590 19.305113 17.488520 -24.535649 -4.315973 -0.876243 -1.885954 4.364404 19.590102 21.135852 8.270400 -7.125000 0.000000 0.000000 -9.260500 54.195200 -2.106500 5.119789 1.096540 -0.971623 86.441342 -3.090934 17.663809 -15.965722 23.198283 -3.285481 0.250372 -0.133714 8.669285 -14.358988 7.944565 -2.088500 7.125000 0.000000 0.000000 8.853600 -21.718200 5.007700 
